<svg class="svg-icon" style="width: 1em; height: 1em;vertical-align: middle;fill: currentColor;overflow: hidden;" viewBox="0 0 1024 1024" version="1.1" xmlns="http://www.w3.org/2000/svg"><path d="M720.1 448.2h-50V294.8c0-79.9-65.8-144.9-146.6-144.9h-23c-80.8 0-146.6 65-146.6 144.9v153.4h-50V294.8c0-51.9 20.5-100.8 57.8-137.7C399 120.3 448.2 100 500.5 100h23c52.3 0 101.6 20.3 138.8 57.1 37.3 36.9 57.8 85.8 57.8 137.7v153.4z"  /><path d="M802.1 464.6c5.8 0 10.7 4.9 10.7 10.7v392.2c0 5.8-4.9 10.7-10.7 10.7H221.9c-5.8 0-10.7-4.9-10.7-10.7V475.3c0-5.8 4.9-10.7 10.7-10.7h580.2m0-50H221.9c-33.4 0-60.7 27.3-60.7 60.7v392.2c0 33.4 27.3 60.7 60.7 60.7h580.3c33.4 0 60.7-27.3 60.7-60.7V475.3c0-33.4-27.3-60.7-60.8-60.7z"  /><path d="M596.1 624.1c0-46.4-37.6-84.1-84.1-84.1s-84.1 37.6-84.1 84.1c0 36.7 23.5 67.9 56.2 79.4v77.3c0 14.5 11.9 26.4 26.4 26.4h2.9c14.5 0 26.4-11.9 26.4-26.4v-77.3c32.8-11.5 56.3-42.7 56.3-79.4z"  /></svg>